<svg xmlns="http://www.w3.org/2000/svg" xml:space="preserve" width="624.2804" height="300" viewBox="0 0 624.28038 300"><defs><clipPath id="a" clipPathUnits="userSpaceOnUse"><path d="M0 595.276h841.89V0H0Z"/></clipPath></defs><g clip-path="url(#a)" transform="matrix(2.12254 0 0 -2.12254 -581.333 800.144)"><path d="M0 0c-6.396-.114-12.502-1.397-18.174-3.534-15.644-5.892-30.418-6.146-52.517 9.548-10.773 7.65-24.293 11.395-38.492 11.395-17.849 0-34.149-6.621-46.59-17.533-11.879-10.419-25.066-8.398-39.373-8.398-22.703 0-44.739-18.617-44.739-43.326 0-24.708 20.03-46.152 44.739-46.152 1.849 0 3.685.029 5.467.308 14.055 2.191 24.031.288 33.247-8.121 12.441-11.35 29.084-18.118 47.249-18.118 14.455 0 27.93 4.286 39.089 11.788 14.344 9.643 33.331 14.853 53.138 8.683 5.674-1.768 11.636-3.071 17.921-3.071 29.672 0 53.679 24.261 53.264 54.029C53.82-23.147 29.354.521 0 0" style="fill:#ff681d;fill-opacity:1;fill-rule:nonzero;stroke:none" transform="translate(513.77 359.566)"/></g></svg>